<svg version="1.2" xmlns="http://www.w3.org/2000/svg" viewBox="0 0 330 120" width="180" height="80">
	<title>SME_LOGO-svg</title>
	<defs>
		<clipPath clipPathUnits="userSpaceOnUse" id="cp1">
			<path d="m165 14.58c10.62 0 19.23 8.62 19.23 19.23 0 10.62-8.61 19.23-19.23 19.23-10.62 0-19.23-8.61-19.23-19.23 0-10.61 8.61-19.23 19.23-19.23z"/>
		</clipPath>
		<clipPath clipPathUnits="userSpaceOnUse" id="cp2">
			<path d="m165 14.58c10.62 0 19.23 8.62 19.23 19.23 0 10.62-8.61 19.23-19.23 19.23-10.62 0-19.23-8.61-19.23-19.23 0-10.61 8.61-19.23 19.23-19.23z"/>
		</clipPath>
	</defs>
	<style>
		.s0 { fill: #ffffff } 
		.s1 { fill: none } 
		.s2 { fill: #00923f } 
		.s3 { fill: #e77817 } 
	</style>
	<g id="Layer_x0020_1">
		<g id="_245426200">
			<g id="Layer">
				<path id="_243340128" fill-rule="evenodd" class="s0" d="m164.4 2.8q1.6 0 3.2 0.1l0.3 3 2.8 0.5c0.2 0.1 0.5-2.1 1-2.9q3.4 0.8 6.5 2.3l-0.8 2.8 2.2 1.3c0.3 0.2 1.3-1.5 2.1-2.2q2.9 1.9 5.3 4.3l-1.8 2.4 2.1 2.1c0.2 0.3 1.7-1.2 2.4-1.5q2.1 2.8 3.6 6l-2.5 1.2 0.9 2.9c0.1 0.2 2.2-0.5 3-0.5q1 3.1 1.3 6.5l-3 0.9 0.3 3.5c0 0.4 1.9 0.3 2.7 0.6q-0.2 3.5-1.2 6.7l-2.9-0.4-1.2 2.9c-0.1 0.4 2.2 0.7 2.7 1.2q-1.4 3.3-3.6 6.1l-2.5-1.4-2 2.2c-0.2 0.2 1.5 1.6 1.8 2.3q-2.5 2.6-5.6 4.5l-1.8-2.6-2.2 1.4c-0.2 0.1 0.9 1.9 1.1 2.8q-3.1 1.6-6.6 2.4l-1-3-2.8 0.5v3.1h-6.9l0.1-3.1-2.9-0.6c-0.3-0.1-0.7 2.3-1.1 3q-3.4-0.9-6.4-2.4l1-2.9-2.4-1.5c-0.4-0.3-1.4 1.7-2.1 2.3q-2.8-1.9-5.2-4.4l2-2.3-1.5-1.8c-0.2-0.2-2 1.3-2.6 1.5q-2.1-2.8-3.6-6l2.7-1.4-1.1-2.7c-0.2-0.4-2.4 0.6-2.9 0.7q-1-3.3-1.3-6.8l3.2-0.5-0.2-2.1c0-0.3-1.9-0.5-3-0.6q0.1-3.5 0.9-6.8l2.9 0.3 1-2.9c0.1-0.3-2.1-1.5-2.3-1.9q1.2-3.1 3.1-5.8l2.5 1.3 1.6-1.8c0.2-0.2-1.6-1.7-1.9-2.4q2.3-2.6 5.2-4.7l2 2.3 2.4-1.7c0.4-0.2-0.9-1.9-1-2.7 2-1.1 4.3-1.9 6.6-2.6l1 3 2.8-0.6c0.3 0-0.1-2.3 0-3 1.2-0.2 2.4-0.4 3.6-0.4zm-26.2 31.6c0.3 14.7 12.5 26.5 27.3 26.3 14.7-0.3 26.5-12.5 26.3-27.3-0.3-14.7-12.5-26.5-27.3-26.3-14.7 0.3-26.5 12.5-26.3 27.3z"/>
				<path id="_243327672" fill-rule="evenodd" class="s0" d="m149.2 52.5h0.5q0.1 0.3 0.2 0.3 0.1 0.1 0.2 0.1 0.1 0 0.1-0.1 0.1-0.2 0-0.5-0.2-0.2-0.2-0.4-0.1-0.1 0-0.3 0-0.2 0.1-0.3 0.2-0.3 0.6-0.3 0.4 0 0.6 0.2 0.4 0.3 0.4 0.8l-0.5 0.1q-0.1-0.4-0.2-0.5-0.1-0.1-0.2 0-0.2 0-0.2 0-0.2 0.2 0.1 0.6 0.1 0.2 0.1 0.3 0.1 0.2 0 0.3 0 0.2-0.1 0.3-0.2 0.3-0.5 0.3-0.4 0-0.6-0.2-0.4-0.3-0.4-0.7zm-1-0.4l-0.4-0.5 0.8-1.4-1.5 0.7-0.4-0.5 1.7-2 0.3 0.4-1.2 1.4 1.8-0.8 0.1 0.2-0.9 1.7 1.5-1.1 0.4 0.3-2.2 1.6zm-2.8-3.1l-0.2-0.4 1.4-2.4 0.4 0.5-0.3 0.4 0.6 0.8 0.5-0.1 0.3 0.4-2.7 0.8zm0.6-0.7zm0.8-0.2l-0.4-0.5-0.4 0.7zm-2.6-0.9l-0.3-0.5 1.7-1-0.3-0.7 0.5-0.3 0.6 1.2-2.2 1.3zm-1-1.7l-0.3-0.5 1.9-0.9-0.4-0.7 0.5-0.2 0.6 1.2-2.3 1.1zm-0.4-4.3l0.3-0.5-0.4-0.2 0.2-0.3q0 0 0.2 0.1 0.2 0 0.2 0.1l0.3-0.7 0.2 0.6-0.1 0.3q0.2 0.2 0.3 0.3 0.1 0.2 0.2 0.3 0 0.2 0 0.3 0 0.2-0.1 0.4-0.1 0.1-0.3 0.2-0.4 0.1-0.9-0.3-0.2 0.3-0.4 0.4-0.3 0.1-0.5 0-0.2-0.2-0.3-0.4-0.1-0.3 0-0.5 0.1-0.3 0.3-0.3 0.2-0.1 0.4 0 0.3 0.1 0.4 0.2zm-0.2 0.3q0 0 0 0 0 0 0 0zm-0.4-0.1q-0.1 0-0.2 0.1 0 0.1 0 0.2 0.1 0 0.1 0.1 0.1 0 0.2 0 0.1-0.1 0.3-0.3-0.3-0.2-0.4-0.1zm1.1-0.2q0 0 0 0.1-0.1 0.1-0.1 0.2 0.2 0.1 0.4 0 0.1 0 0.1-0.1 0.1-0.1 0-0.1 0-0.2-0.2-0.3l-0.2 0.2zm-2.6-2.8l-0.1-0.6 1.5-0.7-1.6-0.3-0.1-0.6 2.6-0.6v0.5l-1.8 0.4 1.9 0.4v0.2l-1.7 0.8h1.8l0.1 0.6-2.6-0.1zm-0.4-3.2v-1.5h0.5v0.9h0.6l-0.1-0.9h0.6v0.9h0.5v-0.9h0.5v1.4l-2.6 0.1zm0-2.2l0.1-0.9q0-0.6 0.4-0.9 0.4-0.3 1-0.2 0.6 0 0.9 0.4 0.3 0.4 0.3 1l-0.1 0.8zm0.5-0.5l1.6 0.1v-0.2q0.1-0.3-0.1-0.6-0.2-0.2-0.6-0.2-0.3-0.1-0.5 0-0.2 0.1-0.3 0.3 0 0.2-0.1 0.4v0.2zm-0.2-2.3l0.1-0.5 2.6 0.5-0.1 0.5zm0.2-1.2l0.1-0.5 1.5 0.3q0.3 0.1 0.4 0 0.2-0.1 0.2-0.3 0.1-0.2 0-0.4-0.1-0.1-0.4-0.2l-1.5-0.4 0.2-0.5 1.6 0.4q0.2 0.1 0.4 0.2 0.2 0.2 0.3 0.5 0 0.2 0 0.5-0.2 0.5-0.5 0.7-0.4 0.2-0.7 0.1zm0.8-3l0.3-0.6 1.6 0.1-1.3-1 0.3-0.6 2.5 0.6-0.2 0.5-1.8-0.5 1.5 1.3-0.1 0.2-1.9-0.1 1.6 0.8-0.2 0.5-2.3-1.2zm1.9-4.3l0.4-0.6q0.3-0.4 0.6-0.4 0.2-0.1 0.5 0.1 0.1 0.1 0.2 0.2 0 0.1 0 0.3 0.3-0.2 0.5-0.2 0.2 0 0.4 0.2 0.3 0.2 0.3 0.5 0 0.3-0.2 0.7l-0.5 0.7-2.2-1.5zm0.7-0.2l0.5 0.3v-0.1q0.1-0.1 0.1-0.2 0-0.2-0.1-0.2-0.1-0.1-0.2-0.1-0.1 0.1-0.2 0.2l-0.1 0.1zm0.8 0.6zm0.6 0.4l0.1-0.2q0.3-0.4 0-0.6-0.1-0.1-0.3 0-0.1 0-0.2 0.2l-0.2 0.2zm-0.8-2.8zm0.4-0.4l1.2 1q0.2 0.1 0.4 0.1 0.1 0 0.3-0.1 0.1-0.2 0.1-0.4 0-0.2-0.2-0.3l-1.2-1 0.3-0.5 1.3 1.1q0.2 0.1 0.3 0.4 0.1 0.2 0.1 0.5-0.1 0.3-0.3 0.5-0.3 0.4-0.7 0.4-0.4 0-0.6-0.2l-1.4-1.1zm2.7-2.6v0.5q-0.3 0.1-0.4 0.2-0.1 0.1 0 0.2 0 0.1 0 0.1 0.2 0.2 0.5 0 0.3-0.1 0.4-0.1 0.2-0.1 0.3 0 0.2 0 0.4 0.2 0.2 0.2 0.2 0.6 0 0.3-0.3 0.6-0.3 0.3-0.8 0.3l-0.1-0.6q0.4 0 0.5-0.1 0.1-0.1 0.1-0.2 0-0.1-0.1-0.2-0.1-0.2-0.5 0-0.3 0.2-0.4 0.2-0.1 0-0.3-0.1-0.1 0-0.2-0.1-0.3-0.3-0.3-0.6 0-0.3 0.3-0.5 0.3-0.4 0.7-0.4zm0.2-0.5l0.4-0.4 1.8 1.9-0.4 0.4zm2.3-2l0.5-0.3 1.5 2-0.4 0.4-2-0.7 1 1.4-0.4 0.3-1.6-2.1 0.5-0.3 1.9 0.6zm1.1-0.7l1.3-0.8 0.2 0.4-0.7 0.5 0.3 0.5 0.7-0.5 0.3 0.4-0.8 0.5 0.3 0.5 0.8-0.5 0.2 0.4-1.2 0.8-1.4-2.2zm3.4-1.6l-0.2 0.5q-0.3 0-0.4 0.1-0.1 0-0.1 0.1-0.1 0.1 0 0.2 0.1 0.1 0.4 0.1 0.3 0 0.5 0 0.1 0 0.3 0.2 0.1 0.1 0.2 0.2 0.1 0.3 0 0.7-0.1 0.3-0.5 0.5-0.3 0.1-0.8 0l0.1-0.6q0.3 0.1 0.5 0 0.1 0 0.2-0.1 0-0.1 0-0.2-0.1-0.2-0.6-0.2-0.2 0.1-0.4 0-0.1 0-0.2-0.1-0.1-0.1-0.2-0.2-0.2-0.3-0.1-0.6 0.2-0.3 0.5-0.5 0.4-0.2 0.8-0.1zm1.9-0.8l-0.2 0.5q-0.3-0.1-0.4 0-0.1 0-0.1 0.1 0 0.1 0 0.2 0.1 0.2 0.4 0.2 0.3 0 0.5 0 0.1 0 0.3 0.2 0.1 0.1 0.2 0.2 0.1 0.4-0.1 0.7-0.1 0.3-0.5 0.4-0.4 0.2-0.9 0l0.2-0.6q0.3 0.2 0.5 0.1 0.1 0 0.2-0.1 0-0.2 0-0.3-0.1-0.1-0.5-0.1-0.3 0-0.4-0.1-0.1 0-0.3-0.1-0.1-0.1-0.1-0.3-0.2-0.3 0-0.6 0.1-0.3 0.5-0.4 0.4-0.2 0.7 0zm1.7-0.8l0.9-0.2q0.6-0.1 1 0.2 0.4 0.2 0.5 0.8 0.2 0.6-0.1 1-0.3 0.4-0.9 0.6l-0.8 0.2zm0.7 0.3l0.3 1.6 0.3-0.1q0.3-0.1 0.5-0.3 0.1-0.2 0-0.7 0-0.2-0.2-0.4-0.1-0.1-0.3-0.2-0.2 0-0.4 0.1h-0.2zm2.2-0.9l1.5-0.2v0.5l-0.9 0.1 0.1 0.5 0.9-0.1v0.5l-0.9 0.1 0.1 0.6 0.9-0.1v0.5l-1.4 0.1-0.3-2.5zm1.9-0.3h0.6l0.7 1.7 0.6-1.7h0.6l-1 2.6h-0.5l-1-2.6zm3 0l1.5 0.1v0.5h-0.9l-0.1 0.5 0.9 0.1v0.5l-0.9-0.1-0.1 0.5 0.9 0.1v0.5l-1.5-0.1 0.2-2.6zm2.3 0.2l0.5 0.1-0.4 2 0.8 0.2-0.1 0.5-1.3-0.2zm1.5 1.6q0.1-0.6 0.6-0.9 0.4-0.2 0.9-0.1 0.6 0.1 0.9 0.6 0.2 0.5 0.1 1-0.1 0.6-0.6 0.9-0.4 0.2-1 0.1-0.6-0.1-0.8-0.6-0.3-0.5-0.1-1zm1.4-0.5q-0.3-0.1-0.5 0.1-0.3 0.2-0.4 0.5-0.1 0.4 0.1 0.6 0.1 0.3 0.4 0.4 0.3 0.1 0.6-0.1 0.2-0.2 0.3-0.5 0.1-0.4 0-0.6-0.2-0.3-0.5-0.4zm2.1 0.2zm0.9 0.3q0.3 0.1 0.4 0.4 0.2 0.3 0 0.6 0 0.2-0.2 0.4-0.2 0.1-0.4 0.1-0.3 0-0.4 0l-0.3-0.1-0.4 0.9-0.5-0.2 0.9-2.4zm-0.4 0.3l-0.3 0.6 0.2 0.1q0.2 0 0.3 0 0.1-0.1 0.2-0.2 0-0.1-0.1-0.3 0-0.1-0.2-0.2h-0.1zm2.1 0.4l0.6 0.3-0.3 1.6 1.1-1.1 0.6 0.3-1 2.5-0.4-0.3 0.7-1.7-1.4 1.3-0.3-0.1 0.4-1.9-1.1 1.5-0.4-0.3 1.5-2.1zm2.8 1.7l1.2 0.8-0.3 0.4-0.7-0.5-0.3 0.5 0.7 0.5-0.3 0.4-0.7-0.5-0.3 0.4 0.7 0.5-0.2 0.5-1.3-0.9zm3.1 2.5l0.5 0.3-1.7 2-0.4-0.3 0.1-2.1-1 1.3-0.5-0.4 1.7-2 0.4 0.4-0.1 2 1-1.2zm0.9 0.9l1.2 1.3-0.4 0.3-0.4-0.4-1.6 1.4-0.3-0.5 1.5-1.3-0.4-0.5 0.4-0.3zm3.3 4.4l-0.5 0.4q-0.1-0.5-0.2-0.8-0.2-0.3-0.5-0.3-0.3 0-0.6 0.2-0.3 0.2-0.3 0.4-0.1 0.3 0.1 0.6 0.1 0.2 0.5 0.5l-0.5 0.3q-0.4-0.3-0.5-0.5-0.3-0.5-0.2-1 0.1-0.5 0.6-0.8 0.5-0.3 1-0.2 0.5 0.1 0.8 0.5 0.2 0.3 0.3 0.7zm0.4 0.6l0.3 0.5-0.9 0.4 0.4 0.8 0.9-0.4 0.3 0.5-2.4 1.2-0.2-0.5 0.9-0.5-0.4-0.8-0.9 0.4-0.3-0.5 2.3-1.1zm1.6 3.4l0.2 0.4-2.1 1.9-0.2-0.5 0.4-0.4-0.3-1h-0.6l-0.2-0.5 2.8 0.1zm-0.7 0.5h-0.8l0.2 0.5 0.6-0.5zm1.4 1.7l0.2 0.7-1.4 0.8 1.6 0.1 0.2 0.6-2.4 1-0.2-0.5 1.7-0.7-1.9-0.1v-0.3l1.6-1-1.8 0.3-0.2-0.6zm0.7 3.4zm0.1 0.7q0 0.5-0.2 0.7-0.1 0.2-0.4 0.2-0.2 0-0.3 0-0.1-0.1-0.2-0.2-0.1 0.3-0.3 0.4-0.2 0.1-0.4 0.2-0.3 0-0.5-0.2-0.3-0.3-0.3-0.7l-0.1-0.9 2.6-0.2zm-0.4-0.2l-0.6 0.1v0.1q0 0.2 0.1 0.2 0.1 0.1 0.3 0.1 0.1 0 0.1-0.1 0.1-0.1 0.1-0.2zm-1 0l-0.7 0.1v0.2q0 0.5 0.4 0.4 0.1 0 0.2-0.1 0.1-0.1 0.1-0.3zm1.6 1.7l-0.1 1.5h-0.5v-0.9h-0.5v0.9h-0.5v-0.9h-0.5v0.9l-0.6-0.1 0.1-1.4zm-0.1 2.1zm-0.1 0.8q0 0.4-0.2 0.6-0.2 0.2-0.6 0.2-0.2 0-0.4-0.1-0.2-0.1-0.3-0.4l-1.1 0.6v-0.6l1.1-0.6v-0.1l-1-0.1v-0.5l2.6 0.2zm-0.4-0.4zm-0.7 0v0.1q-0.1 0.4 0.3 0.5 0.1 0 0.2-0.1 0.1-0.1 0.2-0.3v-0.2zm-0.6 3q0.5 0.2 0.8 0.6 0.2 0.5 0.1 1-0.1 0.6-0.6 0.8-0.5 0.3-1 0.2-0.6-0.2-0.8-0.6-0.3-0.5-0.2-1.1 0.2-0.5 0.6-0.8 0.5-0.2 1.1-0.1zm0.4 1.5q0.1-0.3-0.1-0.6-0.1-0.2-0.5-0.3-0.3-0.1-0.6 0-0.3 0.2-0.4 0.5 0 0.3 0.1 0.5 0.2 0.3 0.5 0.4 0.4 0.1 0.7 0 0.2-0.2 0.3-0.5zm-0.2 2.1l-0.5 1.4-0.5-0.2 0.4-0.8-0.5-0.2-0.4 0.8-0.4-0.2 0.3-0.8-1-0.4 0.2-0.5zm-1.4 3.1l-0.3 0.5-2.2-1.3 0.3-0.5zm-1.6 2.5l-0.3 0.4-2.1-1.4 0.2-0.4 2.1-0.1-1.4-0.9 0.3-0.5 2.2 1.4-0.3 0.5-2.1 0.1 1.4 0.9zm-0.8 1.1l-0.6 0.7q-0.4 0.4-0.9 0.4-0.5 0.1-0.9-0.3-0.5-0.4-0.5-0.9 0-0.5 0.4-1l0.5-0.6zm-0.7 0.1l-1.2-1-0.2 0.1q-0.2 0.3-0.2 0.6 0 0.3 0.3 0.6 0.2 0.1 0.4 0.2 0.2 0 0.4-0.1 0.2-0.1 0.3-0.2zm-1.1 1.9zm-0.4 0.4l-1.8-1.8 0.4-0.4 1.8 1.8zm-1.2 1.1zm-0.3 0.3l-2.5-1.3 0.4-0.4 0.5 0.3 0.8-0.7-0.2-0.5 0.4-0.4 0.9 2.7zm-0.3-0.8l-0.3-0.8-0.5 0.4z"/>
				<path id="_243329712" class="s0" d="m154.9 54.3l1.3 0.5 0.8-1-0.1 1.3 1.3 0.5-1.3 0.3-0.2 1.3-0.6-1.1-1.3 0.3 0.8-1-0.6-1.1zm8.4 2.2l1.3 0.1 0.5-1.2 0.3 1.2 1.4 0.1-1.2 0.7 0.4 1.3-1.1-0.8-1.1 0.7 0.5-1.2-1-0.9zm8.4-0.9l1.2-0.5-0.1-1.3 0.9 1 1.2-0.5-0.7 1.1 0.9 1.1-1.3-0.4-0.7 1.2-0.1-1.4-1.3-0.3z"/>
				<g id="Clip-Path" clip-path="url(#cp1)">
					<g id="Layer">
						<path id="_111407376" class="s1" d="m145.8 14.6h38.4v38.4h-38.4z"/>
					</g>
				</g>
				<g id="Clip-Path" clip-path="url(#cp2)">
					<g id="Layer">
						<g id="Layer">
							<path id="_2442497281" fill-rule="evenodd" class="s2" d="m189.8 49.8c-2.5 3.7-16.7 7.6-18.5 7.9-1.8 0.3-6.7-1.4-6.7-1.4l2.3-4.6 2.8-5.2 1.9-4.5 1.2-8.4-0.4-4-0.9-3.6-0.7-2.3-5-9.3 17.2-3.6 6.8 39z"/>
							<path id="_244249656" fill-rule="evenodd" class="s3" d="m140.5 49.8l6.7-39 16.8 3.3-4.5 9.6-1.3 2.2-0.9 3.7 0.1 4-0.2 3.7 1.4 4.7 2 4.5 2.7 5.2 2.4 4.6c0 0-5 1.7-6.8 1.4-1.8-0.3-16-4.2-18.4-7.9z"/>
							<path id="_244249584" fill-rule="evenodd" class="s0" d="m164.6 54.4q0 0 0 0zm-6.8-12.9q-4.3 1-8.5 3.1l-0.5-0.8q4.4-2.2 8.7-3.2-0.8-3.3-0.8-6.6 0-4.7 1.7-9.5-4.8-0.9-9.6-3.4l0.5-0.8q4.7 2.4 9.4 3.4 2-5.2 5.9-10.5l0.4 0.3 0.4-0.3q3.9 5.2 5.9 10.4 4.7-1 9.4-3.3l0.4 0.8q-4.8 2.4-9.5 3.4 1.7 4.8 1.7 9.5 0 3.3-0.8 6.6 4.3 1 8.6 3.2l-0.4 0.9q-4.2-2.2-8.5-3.2-1.8 6.5-6.8 12.9l-0.4-0.3-0.4 0.3q-5-6.4-6.8-12.9zm-0.2-7.5q0 3.2 0.8 6.4 3.2-0.7 6.4-0.7 3.4 0 6.8 0.7 0.8-3.2 0.8-6.4 0-4.6-1.7-9.3-2.9 0.5-5.9 0.5-2.7 0-5.5-0.5-1.7 4.7-1.7 9.3zm1.1 7.3q1.7 6.1 6.3 12.1 4.6-6 6.3-12.1-3.2-0.6-6.5-0.6-3.1 0-6.1 0.6zm6.3-27q-3.5 4.8-5.4 9.5 2.6 0.5 5.2 0.5 2.8 0 5.6-0.5-1.9-4.7-5.4-9.5z"/>
						</g>
					</g>
				</g>
				<path id="Layer" class="s1" d="m165 14.6c10.6 0 19.2 8.6 19.2 19.2 0 10.6-8.6 19.2-19.2 19.2-10.6 0-19.2-8.6-19.2-19.2 0-10.6 8.6-19.2 19.2-19.2z"/>
				<path id="_111411864" class="s1" d="m165 14.6c10.6 0 19.2 8.6 19.2 19.2 0 10.6-8.6 19.2-19.2 19.2-10.6 0-19.2-8.6-19.2-19.2 0-10.6 8.6-19.2 19.2-19.2z"/>
				<path id="_243330264" fill-rule="evenodd" class="s0" d="m165 14.1c5.4 0 10.4 2.2 13.9 5.8 3.6 3.6 5.8 8.5 5.8 13.9 0 5.5-2.2 10.4-5.8 13.9-3.5 3.6-8.5 5.8-13.9 5.8-5.4 0-10.4-2.2-13.9-5.8-3.6-3.5-5.8-8.4-5.8-13.9 0-5.4 2.2-10.3 5.8-13.9 3.5-3.6 8.5-5.8 13.9-5.8zm13.3 6.4c-3.4-3.3-8.1-5.4-13.3-5.4-5.2 0-9.9 2.1-13.3 5.4-3.4 3.4-5.5 8.1-5.5 13.3 0 5.2 2.1 9.9 5.5 13.3 3.4 3.4 8.1 5.5 13.3 5.5 5.2 0 9.9-2.1 13.3-5.5 3.4-3.4 5.5-8.1 5.5-13.3 0-5.2-2.1-9.9-5.5-13.3z"/>
				<path id="_243330144" class="s0" d="m159.4 39.1l1.3-12.9h3.3l0.7 4.9q0.1 1.1 0.2 2.2 0.1 1 0.2 2 0.2-1.7 0.3-2.7 0.1-1 0.2-1.5l0.8-4.9h3.3l1.1 12.9h-2.6l-0.3-6q0-0.2 0-0.6-0.2-2.4-0.2-3.9l-1.6 10.5h-1.9l-1.6-10.5q0 1.3-0.2 3.7 0 0.6 0 0.8l-0.4 6h-2.6z"/>
				<path id="_117015688" class="s0" d="m148.7 40v-3.3q0.6 0.5 1.2 0.8 0.6 0.3 1.2 0.3 0.8 0 1.2-0.5 0.5-0.4 0.5-1.1 0-0.9-1.3-2-0.3-0.2-0.5-0.4-1.4-1.3-2-2.3-0.5-1.1-0.5-2.4 0-2 1.1-3.3 1.2-1.3 3.1-1.3 0.6 0 1.3 0.2 0.6 0.2 1.4 0.6v2.8q-0.9-0.4-1.3-0.5-0.5-0.2-0.9-0.2-0.7 0-1.1 0.4-0.4 0.5-0.4 1.2 0 0.6 0.3 1.1 0.3 0.5 1.5 1.5 1.6 1.4 2.1 2.3 0.4 0.9 0.4 2.2 0 2.2-1.2 3.4-1.2 1.3-3.3 1.3-0.8 0-1.5-0.2-0.7-0.2-1.3-0.6z"/>
				<path id="_117015976" class="s0" d="m174.2 40.4v-15.9h6.7v3h-3.6v3.2h3.3v2.9h-3.3v3.7h3.6v3.1z"/>
			</g>
			<path id="_243321576" fill-rule="evenodd" class="s0" d="m43.5 69.9l-2.2 2.4q-1.7-1-2.4-1-0.6 0-1 0.4-0.4 0.5-0.4 1.1 0 1.1 2.1 2 1.6 0.7 2.4 1.2 0.8 0.6 1.3 1.5 0.6 1 0.6 2.1 0 2.1-1.7 3.6-1.6 1.5-3.9 1.5-2.5 0-4.9-2.3l2.2-2.7q1.6 1.6 2.9 1.6 0.6 0 1.2-0.5 0.6-0.6 0.6-1.2 0-1.3-2.7-2.2-1.5-0.6-2.1-1-0.7-0.5-1.1-1.4-0.4-1-0.4-1.9 0-2.2 1.4-3.5 1.3-1.3 3.6-1.3 2.7 0 4.5 1.6zm8.1-1.4l3 9.6 3-9.6h4l2 16h-3.3l-1.4-11.3-3.5 11.3h-1.6l-3.6-11.4-1.3 11.4h-3.4l2-16zm14.6 0h9v3.2h-5.6v3.2h5.6v3.1h-5.6v3.3h5.6v3.2h-9zm30.6 0.9v3.9q-2.6-1.6-4.6-1.6-1.9 0-3.1 1.4-1.2 1.3-1.2 3.6 0 2.1 1.3 3.4 1.2 1.3 3.2 1.3 1.9 0 4.4-1.5v3.9q-2.9 1-4.7 1-3.3 0-5.5-2.4-2.3-2.4-2.3-5.8 0-3.5 2.3-5.9 2.3-2.4 5.6-2.4 2.1 0 4.6 1.1zm2.5-0.9h3.5v6.2h5.7v-6.2h3.4v16h-3.4v-6.3h-5.7v6.3h-3.5zm24.2 0l6.5 16.1h-3.5l-1.3-3.2h-6.1l-1.3 3.2h-3.4l6.4-16.1zm-1.3 5.3l-1.9 4.7h3.8zm11.4-5.2h4.1l3 9.6 3-9.6h4l2.1 16h-3.3l-1.4-11.3-3.6 11.3h-1.5l-3.7-11.4-1.3 11.4h-3.3zm18.6 0h4.6q3 0 4.1 1.2 1 1.2 1 2.9 0 1-0.4 1.7-0.4 0.7-1.2 1.5 1.6 0.5 2.3 1.7 0.7 1.1 0.7 2.3 0 2.3-1.5 3.5-1.5 1.2-4.3 1.2h-5.3zm3.4 6.2h0.8q0.9 0 1.5-0.5 0.6-0.6 0.6-1.4 0-0.7-0.6-1.1-0.6-0.5-1.5-0.5h-0.8zm0 7.1h1.3q2.8 0 2.8-2 0-1.1-0.7-1.8-0.7-0.6-2-0.6h-1.4zm9.9-13.3h9v3.2h-5.6v3.2h5.6v3.1h-5.6v3.4h5.6v3.1h-9zm11.9 0h5.3q2.4 0 3.8 1.3 1.4 1.3 1.4 3.4 0 1.3-0.7 2.6-0.6 1.3-2.3 2.1l4.5 6.7h-4l-4.1-6.2h-0.4v6.2h-3.5zm3.5 2.8v4.2h0.7q2.7 0 2.7-2.2 0-0.9-0.7-1.4-0.7-0.6-1.9-0.6zm17.2 5.2q0-3.6 2.4-5.9 2.3-2.3 5.6-2.3 3.5 0 5.8 2.3 2.4 2.3 2.4 5.9 0 3.5-2.3 5.9-2.3 2.3-5.8 2.3-3.5 0-5.8-2.3-2.3-2.4-2.3-5.9zm8.1-5q-2 0-3.2 1.4-1.3 1.4-1.3 3.7 0 2.1 1.3 3.5 1.2 1.4 3.2 1.4 2 0 3.2-1.4 1.3-1.4 1.3-3.6 0-2.3-1.3-3.6-1.2-1.4-3.2-1.4zm11-3h9v3.1h-5.6v3.2h5.6v3.2h-5.6v6.5h-3.4zm18.4 0h3.5v16h-3.5zm17.3 0h3.4v16h-3.4l-7.3-10.3v10.3h-3.5v-16h3.4l7.4 10.3zm6.5 0h5.5q3.5 0 5.6 2.2 2.1 2.2 2.1 5.9 0.1 3.6-2.2 5.8-2.2 2.1-5.8 2.1h-5.2zm3.5 3.1v9.9h1.4q2.1 0 3.4-1.2 1.4-1.1 1.4-3.9 0-1.5-0.6-2.7-0.7-1.3-2-1.7-1.2-0.4-2.3-0.4zm12.2-3.1h3.5v16.1h-3.5zm14.9 0l6.6 16h-3.5l-1.3-3.1h-6.1l-1.3 3.1h-3.4l6.4-16zm-1.4 5.2l-1.8 4.7h3.8z"/>
			<path id="_245423848" fill-rule="evenodd" class="s0" d="m33.6 91.5h4.9v1.8h-3v1.7h3v1.8h-3v1.8h3v1.7h-4.9zm8.3 3.1v0.9q0.1-0.1 0.3-0.3 0.3-0.2 0.5-0.4 0.2-0.2 0.5-0.3 0.3-0.1 0.6-0.1 0.3 0 0.8 0.3 0.5 0.3 0.8 1 0.5-0.7 1-1 0.6-0.3 1-0.3 0.8 0 1.3 0.7 0.6 0.6 0.6 1.6v3.7h-1.8v-3.3q0-0.4-0.2-0.8-0.3-0.3-0.6-0.3-0.5 0-0.8 0.4-0.3 0.4-0.3 0.9v3.1h-1.7v-3.2q0-0.5-0.3-0.8-0.3-0.4-0.6-0.4-0.5 0-0.8 0.4-0.3 0.4-0.3 0.9v3.1h-1.8v-5.8h1.8zm10.8 0v0.8q0.4-0.5 0.8-0.7 0.4-0.2 1-0.2 1 0 1.8 0.9 0.7 0.9 0.7 2.2 0 1.2-0.7 2-0.7 0.9-1.7 0.9-0.6 0-1-0.3-0.4-0.2-0.8-0.8h-0.1v3.5h-1.7v-8.3h1.7zm2.5 3q0-0.6-0.4-1-0.3-0.4-0.8-0.4-0.5 0-0.9 0.4-0.3 0.4-0.3 1 0 0.5 0.3 0.9 0.4 0.4 0.9 0.4 0.5 0 0.9-0.4 0.3-0.3 0.3-0.9zm2.9-0.1q0-1.4 0.9-2.2 0.8-0.9 2.1-0.9 1.3 0 2.1 0.9 0.9 0.9 0.9 2.2 0 1.3-0.9 2.1-0.8 0.9-2.1 0.9-1.4 0-2.2-0.9-0.8-0.9-0.8-2.1zm4.3 0q0-0.6-0.4-1-0.4-0.5-0.9-0.5-0.5 0-0.9 0.4-0.4 0.4-0.4 1 0 0.6 0.4 1.1 0.4 0.4 0.9 0.4 0.5 0 0.9-0.4 0.4-0.4 0.4-1zm4-2.9l1.6 3.4 1.4-3.4h1.1l1.4 3.4 1.5-3.4h1.8l-2.6 5.8h-1.4l-1.3-3.2-1.2 3.2h-1.4l-2.7-5.8zm15.2 3.3h-4.2q0.1 0.5 0.4 0.9 0.3 0.3 0.8 0.3 0.8 0 1.2-0.7l1.6 0.5q-0.9 1.6-2.7 1.6-1.4 0-2.2-0.9-0.8-0.8-0.8-2.2 0-1.2 0.8-2.1 0.9-0.8 2.1-0.8 1.3 0 2.1 0.9 0.9 0.9 0.9 2.2zm-1.8-1.2q-0.3-1-1.1-1-0.5 0-0.9 0.2-0.3 0.3-0.4 0.8zm4.7-1.2q0.3-0.5 0.6-0.7 0.3-0.3 0.6-0.3 0.2 0 0.3 0v1.9q-0.2 0-0.4 0-0.5 0-0.8 0.4-0.3 0.3-0.3 1v2.6h-1.7v-5.8h1.7zm2.5-3q0-0.4 0.3-0.7 0.3-0.4 0.8-0.4 0.4 0 0.7 0.4 0.4 0.3 0.4 0.7 0 0.5-0.4 0.8-0.3 0.3-0.7 0.3-0.5 0-0.8-0.3-0.3-0.3-0.3-0.8zm0.2 2.1h1.7v5.8h-1.7zm5.4 0v0.7q0.9-0.8 1.8-0.8 0.8 0 1.4 0.7 0.5 0.6 0.5 1.7v3.5h-1.7v-3.2q0-0.5-0.3-0.9-0.3-0.3-0.7-0.3-0.4 0-0.7 0.4-0.3 0.5-0.3 1.1v2.9h-1.7v-5.8zm9.3 4.8q-0.8 1-1.8 1-1.1 0-1.9-0.9-0.7-0.8-0.7-2.1 0-1.2 0.8-2 0.7-0.9 1.8-0.9 0.9 0 1.8 0.9v-0.8h1.7v5.9q0 0.5-0.3 1.1-0.4 0.6-1.1 0.9-0.7 0.3-1.7 0.3-1.2 0-1.9-0.4-0.7-0.5-1.1-1.6h2q0.5 0.8 1.2 0.8 0.5 0 0.8-0.4 0.4-0.4 0.4-1.1zm-2.5-1.9q0 0.4 0.3 0.8 0.4 0.4 0.9 0.4 0.5 0 0.9-0.4 0.4-0.4 0.4-0.9 0-0.6-0.4-1-0.3-0.4-0.9-0.4-0.5 0-0.9 0.4-0.3 0.4-0.3 1.1zm14.6-5.1l-1.2 1.3q-0.9-0.6-1.4-0.6-0.3 0-0.5 0.2-0.2 0.3-0.2 0.6 0 0.7 1.2 1.1 0.8 0.4 1.3 0.7 0.4 0.3 0.7 0.8 0.3 0.6 0.3 1.2 0 1.1-0.9 2-0.9 0.8-2.2 0.8-1.3 0-2.7-1.3l1.3-1.4q0.8 0.8 1.5 0.8 0.4 0 0.7-0.3 0.3-0.3 0.3-0.6 0-0.7-1.4-1.2-0.9-0.3-1.2-0.6-0.4-0.3-0.6-0.8-0.3-0.5-0.3-1 0-1.2 0.8-1.9 0.8-0.8 2-0.8 1.5 0 2.5 1zm2.2-0.8h2.3l1.6 5.2 1.7-5.2h2.2l1.1 8.8h-1.8l-0.8-6.2-1.9 6.2h-0.9l-2-6.3-0.7 6.3h-1.9zm10.3 0h5v1.7h-3.1v1.8h3.1v1.7h-3.1v1.9h3.1v1.7h-5zm10.8 3.9l-1.2 0.7q-0.5-0.5-1-0.5-0.2 0-0.3 0.1-0.2 0.1-0.2 0.3 0 0.3 0.2 0.4 0.2 0.1 0.9 0.4 0.8 0.2 1.3 0.7 0.4 0.4 0.4 1.1 0 0.8-0.7 1.3-0.6 0.5-1.6 0.5-0.6 0-1.2-0.3-0.7-0.4-1.1-1.1l1.4-0.6q0.4 0.8 0.9 0.8 0.3 0 0.5-0.2 0.1-0.1 0.1-0.3 0-0.3-0.2-0.4-0.2-0.1-0.3-0.1 0-0.1-0.5-0.2-1.7-0.6-1.7-1.8 0-0.8 0.6-1.3 0.6-0.5 1.6-0.5 1.2 0 2.1 1zm8.4-3.8v1.6q-0.3-0.2-0.6-0.2-0.4 0-0.6 0.2-0.2 0.3-0.2 0.7v0.6h1.4v1.6h-1.5v4.2h-1.7v-4.2h-0.5v-1.6h0.5v-0.7q0-1.4 0.6-2 0.7-0.5 1.5-0.5 0.7 0 1.1 0.3zm0.9 5.9q0-1.4 0.8-2.2 0.9-0.9 2.2-0.9 1.2 0 2.1 0.9 0.8 0.8 0.8 2.1 0 1.3-0.8 2.2-0.9 0.8-2.1 0.8-1.5 0-2.3-0.9-0.7-0.9-0.7-2zm4.2 0q0-0.6-0.4-1.1-0.3-0.4-0.8-0.4-0.6 0-1 0.4-0.3 0.4-0.3 1 0 0.6 0.3 1 0.4 0.5 1 0.5 0.5 0 0.8-0.4 0.4-0.5 0.4-1zm4.8-2.1h0.1q0.2-0.4 0.6-0.7 0.3-0.2 0.6-0.2 0.2 0 0.3 0v1.9q-0.2-0.1-0.4-0.1-0.5 0-0.8 0.4-0.3 0.4-0.3 1.1v2.5h-1.8v-5.8h1.7zm14-1.9l-1.3 1.1q-0.4-0.6-1-1-0.6-0.3-1.2-0.3-1 0-1.8 0.8-0.8 0.8-0.8 1.8 0 1.2 0.8 1.9 0.8 0.8 1.8 0.8 0.6 0 1.2-0.3 0.5-0.3 0.8-1.1h-2.1v-1.7h4.1v1.2q0 0.8-0.6 1.8-0.6 1.1-1.6 1.5-1 0.5-2 0.5-1.8 0-3.1-1.3-1.2-1.4-1.2-3.3 0-1.9 1.3-3.2 1.3-1.3 3.1-1.3 2.3 0 3.6 2.1zm1.9-2.1h1.8v9h-1.8zm3.4 6.1q0-1.4 0.8-2.2 0.9-0.9 2.2-0.9 1.3 0 2.1 0.9 0.8 0.9 0.8 2.1 0 1.3-0.8 2.2-0.8 0.9-2.1 0.9-1.4 0-2.2-0.9-0.8-1-0.8-2.1zm4.2 0q0-0.6-0.3-1.1-0.4-0.4-0.9-0.4-0.6 0-0.9 0.4-0.4 0.4-0.4 1 0 0.6 0.4 1.1 0.3 0.4 0.9 0.4 0.5 0 0.9-0.4 0.3-0.5 0.3-1zm3.2-6.1h1.7v3.9q0.8-0.8 1.8-0.8 1 0 1.8 0.8 0.7 0.9 0.7 2.2 0 1.2-0.7 2.1-0.7 0.8-1.7 0.8-0.5 0.1-1-0.2-0.4-0.2-0.9-0.8v0.9h-1.7zm3 4.9q-0.5 0-0.9 0.3-0.3 0.4-0.3 1 0 0.6 0.3 1 0.4 0.4 1 0.4 0.4 0 0.8-0.4 0.3-0.4 0.3-1 0-0.5-0.4-0.9-0.3-0.4-0.8-0.4zm8.2 4.1v-1h-0.1q-0.4 0.6-0.8 0.9-0.4 0.2-1 0.2-1 0-1.7-0.8-0.7-0.9-0.7-2.2 0-1.2 0.7-2.1 0.8-0.9 1.8-0.9 0.5 0 0.9 0.3 0.4 0.2 0.9 0.7v-0.8h1.7v5.7h-1.7zm-1.3-4.1q-0.5 0-0.8 0.4-0.4 0.4-0.4 1 0 0.6 0.3 0.9 0.4 0.4 0.9 0.4 0.5 0 0.9-0.4 0.3-0.4 0.3-1 0-0.6-0.3-1-0.4-0.3-0.9-0.3zm4.8-4.8h1.7v8.9h-1.7zm13.8 0.6v2.2q-1.4-0.9-2.5-0.9-1.1 0-1.7 0.8-0.7 0.7-0.7 2 0 1.1 0.7 1.9 0.7 0.7 1.8 0.7 1 0 2.4-0.8v2.1q-1.5 0.5-2.6 0.5-1.8 0-3-1.3-1.2-1.3-1.2-3.2-0.1-1.9 1.2-3.2 1.3-1.3 3.1-1.3 1.2 0 2.5 0.5zm1.2 5.5q0-1.3 0.9-2.2 0.8-0.8 2.1-0.8 1.3 0 2.1 0.9 0.9 0.8 0.9 2.1 0 1.3-0.9 2.2-0.8 0.8-2.1 0.8-1.4 0-2.2-0.9-0.8-0.9-0.8-2.1zm4.3 0q0-0.6-0.4-1-0.4-0.4-0.9-0.4-0.5 0-0.9 0.4-0.4 0.4-0.4 1 0 0.6 0.4 1 0.4 0.5 0.9 0.4 0.5 0 0.9-0.4 0.4-0.4 0.4-1zm5-2.9v0.9q0.1 0 0.3-0.3 0.3-0.2 0.5-0.4 0.2-0.1 0.5-0.2 0.3-0.1 0.6-0.1 0.4 0 0.8 0.3 0.5 0.2 0.8 1 0.5-0.7 1-1 0.6-0.3 1-0.3 0.8 0 1.3 0.6 0.6 0.7 0.6 1.6v3.7h-1.7v-3.2q0-0.5-0.3-0.8-0.3-0.3-0.6-0.3-0.5 0-0.8 0.3-0.3 0.4-0.3 0.9v3.1h-1.7v-3.1q0-0.5-0.3-0.9-0.3-0.3-0.6-0.3-0.5 0-0.8 0.4-0.3 0.3-0.3 0.9v3h-1.8v-5.8h1.8zm10.8 0v0.9q0.4-0.5 0.8-0.8 0.4-0.2 1-0.2 1 0 1.8 0.9 0.7 0.9 0.7 2.2 0 1.2-0.7 2.1-0.7 0.8-1.7 0.8-0.6 0-1-0.2-0.4-0.3-0.8-0.8h-0.1v3.4h-1.7v-8.3h1.7zm2.5 3q0-0.6-0.4-1-0.3-0.4-0.8-0.4-0.5 0-0.9 0.4-0.3 0.4-0.3 1 0 0.6 0.3 1 0.4 0.3 0.9 0.3 0.5 0 0.9-0.3 0.3-0.4 0.3-1zm4.3 0.3q0.1 0.6 0.4 0.9 0.3 0.4 0.8 0.4 0.8 0 1.2-0.7l1.6 0.5q-0.9 1.5-2.7 1.5-1.4 0-2.2-0.8-0.8-0.8-0.8-2.2 0-1.3 0.8-2.1 0.9-0.9 2.1-0.9 1.3 0 2.1 0.9 0.8 0.9 0.8 2.2v0.3zm2.4-1.1q-0.3-1.1-1.1-1.1-0.5 0-0.8 0.3-0.4 0.2-0.4 0.8zm3-4.2h1.7v2h0.8v1.6h-0.8v4.2h-1.7v-4.2h-0.7v-1.6h0.7zm3.4-0.1q0-0.5 0.3-0.8 0.3-0.3 0.8-0.3 0.4 0 0.7 0.3 0.3 0.3 0.3 0.8 0 0.4-0.3 0.7-0.3 0.3-0.7 0.3-0.5 0-0.8-0.3-0.3-0.3-0.3-0.7zm0.2 2.1h1.7v5.8h-1.7zm3.5-2h1.7v2h0.8v1.6h-0.8v4.2h-1.7v-4.2h-0.7v-1.6h0.7zm3.4-0.2q0-0.4 0.4-0.7 0.3-0.3 0.7-0.3 0.5 0 0.8 0.3 0.3 0.3 0.3 0.7 0 0.5-0.3 0.8-0.3 0.3-0.8 0.3-0.4 0-0.7-0.3-0.4-0.3-0.4-0.8zm0.3 2.2h1.7v5.7h-1.7zm2.9 0h1.8l1.6 3.4 1.6-3.4h1.8l-2.7 5.8h-1.4zm9 3.3q0 0.6 0.3 0.9 0.4 0.4 0.8 0.4 0.8 0 1.3-0.7l1.5 0.5q-0.8 1.5-2.7 1.5-1.4 0-2.2-0.8-0.8-0.8-0.8-2.2 0-1.3 0.9-2.1 0.8-0.9 2.1-0.9 1.2 0 2.1 0.9 0.8 0.9 0.8 2.2v0.3zm2.3-1.1q-0.2-1.1-1.1-1.1-0.5 0-0.8 0.3-0.3 0.2-0.4 0.8zm4.9-2.2v0.7q0.8-0.8 1.8-0.8 0.8 0 1.4 0.7 0.5 0.6 0.5 1.7v3.5h-1.7v-3.2q0-0.5-0.3-0.9-0.3-0.3-0.7-0.3-0.4 0-0.7 0.4-0.3 0.4-0.3 1.1v2.9h-1.8v-5.8zm6.7 3.3q0.1 0.6 0.4 0.9 0.3 0.4 0.8 0.4 0.8 0 1.2-0.7l1.6 0.5q-0.9 1.5-2.7 1.5-1.4 0-2.2-0.8-0.8-0.8-0.8-2.2 0-1.3 0.9-2.1 0.8-0.9 2-0.9 1.3 0 2.1 0.9 0.9 0.9 0.9 2.2v0.3zm2.3-1.1q-0.2-1.1-1.1-1.1-0.5 0-0.8 0.3-0.4 0.2-0.4 0.8zm7.2-1.4l-1.1 0.7q-0.5-0.5-1-0.5-0.2 0-0.4 0.2-0.1 0.1-0.1 0.2 0 0.3 0.2 0.5 0.1 0.1 0.9 0.4 0.8 0.2 1.2 0.6 0.5 0.4 0.5 1.2 0 0.7-0.7 1.3-0.7 0.5-1.6 0.5-0.6 0-1.3-0.4-0.6-0.3-1-1l1.3-0.7q0.5 0.8 1 0.8 0.2 0 0.4-0.1 0.2-0.2 0.2-0.3 0-0.3-0.2-0.4-0.2-0.1-0.3-0.1-0.1-0.1-0.5-0.2-1.7-0.6-1.7-1.9 0-0.7 0.6-1.2 0.6-0.5 1.6-0.5 1.1 0 2 0.9zm5.9 0l-1.2 0.7q-0.5-0.5-0.9-0.5-0.2 0-0.4 0.2-0.1 0.1-0.1 0.2 0 0.3 0.1 0.5 0.2 0.1 1 0.4 0.8 0.2 1.2 0.6 0.5 0.4 0.5 1.2 0 0.7-0.7 1.3-0.7 0.5-1.6 0.5-0.7 0-1.3-0.4-0.6-0.3-1.1-1l1.4-0.7q0.5 0.8 1 0.8 0.2 0 0.4-0.1 0.2-0.2 0.2-0.3 0-0.3-0.2-0.4-0.2-0.1-0.3-0.1-0.1-0.1-0.5-0.2-1.8-0.6-1.8-1.9 0-0.7 0.7-1.2 0.6-0.5 1.6-0.5 1.1 0 2 0.9z"/>
			<path id="_245427760" fill-rule="evenodd" class="s0" d="m39 109.5l-1.2 1.2q-0.9-0.5-1.3-0.5-0.3 0-0.5 0.2-0.2 0.3-0.2 0.6 0 0.6 1.1 1.1 0.9 0.4 1.3 0.6 0.4 0.3 0.7 0.9 0.3 0.5 0.3 1.1 0 1.1-0.9 1.9-0.9 0.8-2.1 0.8-1.3 0-2.6-1.2l1.2-1.5q0.8 0.9 1.5 0.9 0.3 0 0.7-0.3 0.3-0.3 0.3-0.6 0-0.7-1.5-1.2-0.8-0.3-1.1-0.6-0.4-0.2-0.6-0.7-0.2-0.5-0.2-1 0-1.2 0.7-1.9 0.8-0.7 2-0.7 1.4 0 2.4 0.9zm6.7 5.4h-4q0 0.5 0.4 0.9 0.3 0.3 0.7 0.3 0.8 0 1.2-0.7l1.6 0.5q-0.9 1.5-2.7 1.5-1.3 0-2.1-0.8-0.8-0.8-0.8-2.1 0-1.3 0.8-2.1 0.8-0.8 2.1-0.8 1.2 0 2 0.8 0.8 0.9 0.8 2.2zm-4-1.1h2.3q-0.3-1.1-1.1-1.1-0.5 0-0.8 0.3-0.3 0.3-0.4 0.8zm6.8-2.1v0.8q0.3-0.4 0.6-0.6 0.3-0.3 0.6-0.3 0.2 0 0.3 0v1.9q-0.2-0.1-0.4-0.1-0.5 0-0.8 0.4-0.3 0.4-0.3 1v2.5h-1.7v-5.6zm2.3 0h1.8l1.6 3.3 1.5-3.3h1.8l-2.7 5.6h-1.3zm7.5-2q0-0.5 0.3-0.8 0.3-0.3 0.8-0.3 0.4 0 0.7 0.3 0.3 0.3 0.3 0.8 0 0.4-0.3 0.7-0.3 0.3-0.7 0.3-0.5 0-0.8-0.3-0.3-0.3-0.3-0.7zm0.2 2h1.7v5.7h-1.7zm5.3 0v0.7q0.8-0.8 1.8-0.8 0.8 0 1.3 0.6 0.5 0.7 0.5 1.7v3.4h-1.7v-3.1q0-0.5-0.2-0.8-0.3-0.4-0.7-0.4-0.4 0-0.7 0.4-0.3 0.5-0.3 1.1v2.8h-1.7v-5.6zm9.1 5.3v-0.7q-0.8 1-1.8 1-1 0-1.8-0.8-0.7-0.8-0.7-2.1 0-1.2 0.8-2 0.7-0.8 1.7-0.8 0.9 0 1.8 0.9v-0.8h1.6v5.7q0 0.5-0.3 1.1-0.3 0.6-1 0.9-0.7 0.3-1.6 0.3-1.2 0-1.9-0.4-0.7-0.5-1-1.6h1.8q0.6 0.8 1.2 0.8 0.5 0 0.8-0.4 0.4-0.4 0.4-1.1zm-2.5-2.5q0 0.4 0.4 0.8 0.4 0.4 0.9 0.4 0.5 0 0.8-0.4 0.4-0.3 0.4-0.9 0-0.6-0.4-1-0.3-0.3-0.8-0.3-0.5 0-0.9 0.4-0.4 0.3-0.4 1zm14.3-5l-1.2 1.3q-0.9-0.6-1.3-0.6-0.3 0-0.5 0.3-0.2 0.2-0.2 0.5 0 0.6 1.1 1.1 0.9 0.4 1.3 0.7 0.4 0.3 0.7 0.8 0.3 0.5 0.3 1.1 0 1.1-0.9 1.9-0.9 0.9-2.1 0.9-1.3 0-2.6-1.3l1.2-1.4q0.8 0.8 1.5 0.8 0.4 0 0.7-0.3 0.3-0.3 0.3-0.6 0-0.7-1.4-1.2-0.9-0.3-1.2-0.6-0.3-0.2-0.6-0.7-0.2-0.5-0.2-1 0-1.2 0.7-1.9 0.8-0.7 2-0.7 1.4 0 2.4 0.9zm3.3 2.2v0.9q0.1-0.1 0.3-0.3 0.2-0.2 0.4-0.4 0.3-0.1 0.6-0.2 0.3-0.1 0.5-0.1 0.4 0 0.8 0.2 0.5 0.3 0.8 1 0.5-0.7 1-0.9 0.5-0.3 1-0.3 0.7 0 1.3 0.6 0.5 0.6 0.5 1.6v3.5h-1.7v-3.1q0-0.5-0.2-0.8-0.3-0.3-0.7-0.3-0.4 0-0.7 0.4-0.3 0.3-0.3 0.8v3h-1.7v-3q0-0.5-0.3-0.8-0.2-0.4-0.6-0.4-0.4 0-0.7 0.4-0.3 0.4-0.3 0.9v2.9h-1.7v-5.6zm12.6 5.6v-0.9q-0.4 0.5-0.8 0.8-0.4 0.2-1 0.2-1 0-1.7-0.8-0.7-0.9-0.7-2.1 0-1.2 0.7-2.1 0.8-0.8 1.8-0.8 0.5 0 0.9 0.2 0.3 0.2 0.8 0.7v-0.8h1.7v5.6zm-1.3-4q-0.5 0-0.8 0.4-0.3 0.4-0.3 1 0 0.5 0.3 0.9 0.3 0.3 0.8 0.3 0.5 0 0.9-0.4 0.3-0.4 0.3-0.9 0-0.6-0.3-1-0.4-0.3-0.9-0.3zm4.7-4.7h1.7v8.7h-1.7zm3.5 0h1.7v8.8h-1.7zm10.7 4.5l1.2 1.4 0.9-0.9 0.9 1q0 0-0.4 0.5-0.4 0.4-0.5 0.4l1.6 1.9h-2.2l-0.7-0.9q-1 0.6-1.4 0.8-0.5 0.2-0.9 0.2-0.6 0-1.2-0.2-0.5-0.3-0.9-0.8-0.3-0.5-0.3-1.2 0-1.4 1.8-2.3-0.8-1-0.8-2 0-0.8 0.7-1.4 0.6-0.6 1.5-0.6 0.9 0 1.6 0.6 0.6 0.6 0.6 1.4 0 0.7-0.5 1.3-0.6 0.5-1 0.8zm-0.8-1q0.8-0.6 0.8-1.1 0-0.4-0.2-0.6-0.1-0.1-0.5-0.1-0.3 0-0.4 0.2-0.2 0.2-0.2 0.5 0 0.4 0.5 1.1zm0.1 2.6q0 0-0.2-0.2-0.2-0.3-0.4-0.4-0.7 0.6-0.7 1.2 0 0.2 0.2 0.5 0.3 0.2 0.6 0.2 0.4 0 1.1-0.5zm9.7-6.1h2.3l1.6 5.2 1.6-5.2h2.1l1.1 8.7h-1.8l-0.7-6.1-1.9 6.1h-0.9l-1.9-6.2-0.7 6.2h-1.8zm15.2 6.2h-4q0 0.5 0.3 0.8 0.4 0.4 0.8 0.4 0.8 0 1.2-0.7l1.5 0.5q-0.8 1.5-2.6 1.5-1.4 0-2.1-0.8-0.8-0.8-0.8-2.2 0-1.2 0.8-2 0.8-0.9 2-0.9 1.3 0 2.1 0.9 0.8 0.9 0.8 2.2zm-4-1.1h2.3q-0.3-1.1-1.1-1.1-0.5 0-0.8 0.3-0.3 0.3-0.4 0.8zm8.9-5.3h1.7v8.8h-1.6v-1h-0.1q-0.7 1.1-1.8 1.1-1 0-1.6-0.8-0.7-0.9-0.7-2.1 0-1.2 0.7-2.1 0.7-0.9 1.7-0.9 0.5 0 0.9 0.2 0.4 0.3 0.8 0.7zm-1.2 4.7q-0.4 0-0.8 0.4-0.4 0.3-0.4 1 0 0.5 0.4 0.9 0.3 0.3 0.7 0.3 0.6 0 0.9-0.4 0.4-0.4 0.4-0.9 0-0.6-0.4-0.9-0.3-0.4-0.8-0.4zm4.5-3.7q0-0.4 0.3-0.7 0.3-0.3 0.7-0.3 0.5 0 0.8 0.3 0.3 0.3 0.3 0.7 0 0.5-0.3 0.8-0.3 0.3-0.8 0.3-0.4 0-0.7-0.3-0.3-0.3-0.3-0.8zm0.2 2.1h1.7v5.7h-1.7zm3.4 0h1.7v2.7q0 0.6 0.3 1 0.3 0.4 0.7 0.4 0.5 0 0.8-0.4 0.3-0.4 0.3-1v-2.7h1.7v3.3q0 1-0.8 1.7-0.8 0.7-1.9 0.7-1.3 0-2.1-0.7-0.7-0.7-0.7-1.9zm8.9 0v0.9q0.1-0.1 0.4-0.3 0.2-0.2 0.4-0.4 0.2-0.1 0.5-0.2 0.3-0.1 0.5-0.1 0.4 0 0.9 0.3 0.4 0.2 0.7 0.9 0.6-0.6 1.1-0.9 0.5-0.3 0.9-0.3 0.8 0 1.3 0.6 0.5 0.7 0.5 1.6v3.6h-1.6v-3.2q0-0.4-0.3-0.7-0.3-0.4-0.6-0.4-0.5 0-0.8 0.4-0.3 0.4-0.3 0.9v3h-1.6v-3.1q0-0.5-0.3-0.8-0.3-0.4-0.6-0.4-0.5 0-0.8 0.4-0.3 0.4-0.3 0.9v3h-1.7v-5.7zm12.6-3h4.8v1.8h-3v1.7h3v1.7h-3v1.8h3v1.7h-4.8zm8.1 2.9v0.7q0.9-0.8 1.8-0.8 0.8 0 1.3 0.7 0.6 0.6 0.6 1.7v3.4h-1.7v-3.2q0-0.5-0.3-0.8-0.3-0.3-0.6-0.3-0.5 0-0.8 0.4-0.3 0.4-0.3 1.1v2.8h-1.7v-5.7zm5.4-1.9h1.6v1.9h0.8v1.6h-0.8v4.1h-1.6v-4.1h-0.7v-1.6h0.7zm8.7 5.2h-4q0 0.5 0.3 0.9 0.4 0.3 0.8 0.3 0.8 0 1.2-0.7l1.5 0.5q-0.8 1.5-2.6 1.5-1.4 0-2.1-0.8-0.8-0.8-0.8-2.1 0-1.3 0.8-2.1 0.8-0.8 2-0.8 1.3 0 2.1 0.8 0.8 0.9 0.8 2.2zm-4-1.1h2.3q-0.3-1.1-1.1-1.1-0.5 0-0.8 0.3-0.3 0.3-0.4 0.8zm6.8-2.1v0.8q0.3-0.4 0.6-0.6 0.3-0.3 0.6-0.3 0.2 0 0.3 0.1v1.8q-0.2 0-0.4 0-0.5 0-0.8 0.3-0.3 0.4-0.3 1v2.5h-1.7v-5.6zm4.3 0v0.8h0.1q0.3-0.5 0.7-0.7 0.4-0.2 1-0.2 1 0 1.7 0.9 0.7 0.9 0.7 2.1 0 1.2-0.7 2-0.7 0.9-1.6 0.9-0.6 0-1-0.3-0.4-0.2-0.8-0.8v3.4h-1.8v-8.1zm2.5 2.9q0-0.5-0.4-0.9-0.3-0.4-0.8-0.4-0.5 0-0.9 0.4-0.3 0.4-0.3 0.9 0 0.6 0.4 1 0.3 0.3 0.8 0.3 0.5 0 0.8-0.3 0.4-0.4 0.4-1zm4.6-2.9v0.8q0.2-0.4 0.6-0.6 0.3-0.3 0.6-0.3 0.2 0 0.3 0.1v1.8q-0.2 0-0.4 0-0.5 0-0.8 0.3-0.3 0.4-0.3 1v2.5h-1.7v-5.6zm2.4-2.1q0-0.4 0.4-0.7 0.3-0.3 0.7-0.3 0.4 0 0.7 0.3 0.3 0.3 0.3 0.7 0 0.5-0.3 0.8-0.3 0.3-0.7 0.3-0.4 0-0.7-0.3-0.4-0.3-0.4-0.8zm0.3 2.1h1.6v5.6h-1.6zm7.5 0.8l-1.1 0.7q-0.5-0.5-0.9-0.5-0.2 0-0.4 0.2-0.1 0.1-0.1 0.2 0 0.3 0.1 0.4 0.2 0.2 1 0.4 0.7 0.3 1.2 0.7 0.4 0.4 0.4 1.1 0 0.8-0.7 1.3-0.6 0.5-1.5 0.5-0.7 0-1.3-0.3-0.6-0.4-1-1.1l1.3-0.6q0.5 0.8 1 0.8 0.2 0 0.4-0.2 0.1-0.1 0.1-0.3 0-0.2-0.2-0.4-0.2-0.1-0.3-0.1 0 0-0.4-0.2-1.7-0.5-1.7-1.8 0-0.7 0.6-1.2 0.6-0.5 1.6-0.5 1.1 0 1.9 0.9zm6.9 2.5h-4.1q0.1 0.5 0.4 0.9 0.3 0.3 0.8 0.3 0.7 0 1.2-0.7l1.5 0.5q-0.8 1.5-2.7 1.5-1.3 0-2.1-0.8-0.8-0.8-0.8-2.2 0-1.2 0.9-2 0.8-0.9 2-0.9 1.2 0 2.1 0.9 0.8 0.9 0.8 2.2zm-4-1.1h2.2q-0.2-1.1-1.1-1.1-0.4 0-0.8 0.3-0.3 0.3-0.3 0.8zm9.3-1.3l-1.1 0.7q-0.5-0.5-1-0.5-0.2 0-0.3 0.1-0.2 0.1-0.2 0.3 0 0.3 0.2 0.4 0.2 0.1 0.9 0.4 0.8 0.2 1.2 0.6 0.5 0.4 0.5 1.2 0 0.7-0.7 1.2-0.7 0.5-1.6 0.5-0.6 0-1.2-0.3-0.6-0.4-1.1-1.1l1.4-0.6q0.5 0.8 0.9 0.8 0.3 0 0.4-0.1 0.2-0.2 0.2-0.4 0-0.2-0.2-0.3-0.2-0.2-0.3-0.2 0 0-0.5-0.1-1.7-0.6-1.6-1.8 0-0.8 0.6-1.3 0.6-0.4 1.5-0.4 1.1 0 2 0.9zm8.3-3.7v1.6q-0.4-0.3-0.7-0.3-0.3 0-0.5 0.3-0.3 0.2-0.3 0.7v0.6h1.5v1.5h-1.5v4.1h-1.6v-4.1h-0.5v-1.5h0.5v-0.7q-0.1-1.4 0.6-2 0.6-0.5 1.4-0.5 0.6 0 1.1 0.3zm2.7 2.9v0.8q0.2-0.4 0.6-0.7 0.3-0.2 0.6-0.2 0.2 0 0.3 0v1.9q-0.2-0.1-0.4-0.1-0.5 0-0.8 0.4-0.3 0.4-0.3 1v2.5h-1.7v-5.6zm2.4 2.8q0-1.3 0.9-2.1 0.8-0.8 2.1-0.8 1.2 0 2.1 0.8 0.8 0.8 0.8 2.1 0 1.3-0.8 2.1-0.9 0.8-2.1 0.8-1.4 0-2.2-0.8-0.8-0.9-0.8-2.1zm4.2 0q0-0.6-0.4-1-0.3-0.4-0.8-0.4-0.5 0-0.9 0.4-0.4 0.4-0.4 1 0 0.6 0.4 1 0.4 0.4 0.9 0.4 0.5 0 0.8-0.4 0.4-0.4 0.4-1zm4.9-2.8v0.9q0.1-0.1 0.3-0.3 0.3-0.2 0.5-0.4 0.2-0.2 0.5-0.2 0.3-0.1 0.5-0.1 0.4 0 0.9 0.2 0.4 0.3 0.7 1 0.6-0.7 1.1-1 0.5-0.2 0.9-0.2 0.8 0 1.3 0.6 0.5 0.6 0.5 1.5v3.6h-1.6v-3.1q0-0.5-0.3-0.8-0.3-0.3-0.6-0.3-0.5 0-0.8 0.4-0.3 0.3-0.3 0.8v3h-1.6v-3q0-0.5-0.3-0.9-0.3-0.3-0.6-0.3-0.5 0-0.8 0.4-0.3 0.3-0.3 0.9v2.9h-1.7v-5.6zm13.4-2.7h2.7v8.3h-1.8v-6.8h-1.2zm9.3 8.3h-2.2l2.1-2.8q-0.6 0.1-0.8 0.1-1.1 0-1.9-0.8-0.7-0.8-0.7-2 0-1.3 0.9-2.1 1-0.9 2.3-0.9 1.4 0 2.2 0.9 0.8 0.8 0.8 2.2 0 1-0.4 2-0.5 0.9-0.9 1.4zm1-5.4q0-0.6-0.4-1-0.4-0.4-1-0.4-0.5 0-0.8 0.4-0.4 0.4-0.4 1 0 0.5 0.4 0.9 0.3 0.4 0.9 0.4 0.5 0 0.9-0.4 0.4-0.4 0.4-0.9zm6.2 5.4h-2.3l2.1-2.8q-0.6 0.1-0.7 0.1-1.1 0-1.9-0.8-0.8-0.9-0.8-2 0-1.3 1-2.1 0.9-0.9 2.3-0.9 1.3 0 2.2 0.9 0.8 0.8 0.8 2.2 0 1-0.5 1.9-0.5 1-0.8 1.5zm0.9-5.5q0-0.5-0.4-0.9-0.3-0.4-0.9-0.4-0.5 0-0.9 0.4-0.4 0.4-0.4 0.9 0 0.6 0.4 1 0.4 0.3 0.9 0.3 0.5 0 0.9-0.3 0.4-0.4 0.4-1zm4.6-0.5h-1.7q0.1-1.1 0.9-1.8 0.7-0.7 1.8-0.7 1.2 0 2 0.7 0.8 0.6 0.8 1.6 0 1-1 1.8 0.7 0.4 1 0.9 0.3 0.4 0.3 1 0 1.2-0.8 1.9-0.8 0.7-2.1 0.7-1.2 0-2-0.7-0.7-0.6-0.9-1.8h1.7q0.3 1.2 1.2 1.2 0.4 0 0.7-0.4 0.3-0.3 0.3-0.7 0-0.6-0.3-1-0.4-0.3-1-0.3h-0.3v-1.4h0.2q0.6 0 1-0.3 0.3-0.3 0.3-0.8 0-0.4-0.3-0.7-0.2-0.4-0.7-0.4-0.9 0-1.1 1.2z"/>
		</g>
		<path id="Layer" class="s1" d="m0 0h330v120h-330z"/>
	</g>
</svg>